{
	"asset":{
		"generator":"Khronos glTF Blender I/O v5.0.21",
		"version":"2.0"
	},
	"scene":0,
	"scenes":[
		{
			"name":"Scene",
			"nodes":[
				4,
				41
			]
		}
	],
	"nodes":[
		{
			"mesh":0,
			"name":"td3nedtla_LOD0_TIER2_000_MatID_1_0"
		},
		{
			"children":[
				0
			],
			"name":"td3nedtla_LOD0_TIER2_000"
		},
		{
			"children":[
				1
			],
			"name":"RootNode"
		},
		{
			"children":[
				2
			],
			"name":"apple.fbx",
			"rotation":[
				0.70710688829422,
				0,
				0,
				0.7071066498756409
			]
		},
		{
			"children":[
				3
			],
			"name":"Sketchfab_model",
			"rotation":[
				-0.70710688829422,
				0,
				0,
				0.7071066498756409
			]
		},
		{
			"mesh":1,
			"name":"dushka 1 kr 1_metal_0"
		},
		{
			"children":[
				5
			],
			"name":"dushka 1 kr 1"
		},
		{
			"mesh":2,
			"name":"dushka 1 kr 2_metal_0"
		},
		{
			"children":[
				7
			],
			"name":"dushka 1 kr 2"
		},
		{
			"mesh":3,
			"name":"dushka 1 kr 3_metal_0"
		},
		{
			"children":[
				9
			],
			"name":"dushka 1 kr 3"
		},
		{
			"mesh":4,
			"name":"dushka 1 kr 4_metal_0"
		},
		{
			"children":[
				11
			],
			"name":"dushka 1 kr 4"
		},
		{
			"mesh":5,
			"name":"dushka 1_plastik_0"
		},
		{
			"mesh":6,
			"name":"dushka 1vint_metal 2_0"
		},
		{
			"children":[
				14
			],
			"name":"dushka 1vint"
		},
		{
			"children":[
				6,
				8,
				10,
				12,
				13,
				15
			],
			"name":"dushka 1"
		},
		{
			"mesh":7,
			"name":"dushka 2 kr 1_metal_0"
		},
		{
			"children":[
				17
			],
			"name":"dushka 2 kr 1"
		},
		{
			"mesh":8,
			"name":"dushka 2 kr 2_metal_0"
		},
		{
			"children":[
				19
			],
			"name":"dushka 2 kr 2"
		},
		{
			"mesh":9,
			"name":"dushka 2 kr 3_metal_0"
		},
		{
			"children":[
				21
			],
			"name":"dushka 2 kr 3"
		},
		{
			"mesh":10,
			"name":"dushka 2 kr 4_metal_0"
		},
		{
			"children":[
				23
			],
			"name":"dushka 2 kr 4"
		},
		{
			"mesh":11,
			"name":"dushka 2 vint_metal 2_0"
		},
		{
			"children":[
				25
			],
			"name":"dushka 2 vint"
		},
		{
			"mesh":12,
			"name":"dushka 2_plastik_0"
		},
		{
			"children":[
				18,
				20,
				22,
				24,
				26,
				27
			],
			"name":"dushka 2"
		},
		{
			"mesh":13,
			"name":"glass_glass_0"
		},
		{
			"children":[
				29
			],
			"name":"glass"
		},
		{
			"mesh":14,
			"name":"hrom 1_hrom_0"
		},
		{
			"children":[
				31
			],
			"name":"hrom 1"
		},
		{
			"mesh":15,
			"name":"hrom 2__0"
		},
		{
			"children":[
				33
			],
			"name":"hrom 2"
		},
		{
			"mesh":16,
			"name":"main_plastik_0"
		},
		{
			"mesh":17,
			"name":"Text__0"
		},
		{
			"children":[
				36
			],
			"name":"Text"
		},
		{
			"children":[
				16,
				28,
				30,
				32,
				34,
				35,
				37
			],
			"name":"main",
			"rotation":[
				-0.70710688829422,
				0,
				0,
				0.7071066498756409
			],
			"scale":[
				100.00000762939453,
				99.99999237060547,
				99.99999237060547
			]
		},
		{
			"children":[
				38
			],
			"name":"RootNode.001"
		},
		{
			"children":[
				39
			],
			"name":"c0333e5f15964c509a1e43e11cdcfc21.fbx",
			"rotation":[
				0.70710688829422,
				0,
				0,
				0.7071066498756409
			],
			"scale":[
				0.009999999776482582,
				0.010000001639127731,
				0.010000001639127731
			]
		},
		{
			"children":[
				40
			],
			"name":"Sketchfab_model.001",
			"rotation":[
				-0.70710688829422,
				0,
				0,
				0.7071066498756409
			],
			"scale":[
				0.25681358575820923,
				0.2504422068595886,
				0.2568136155605316
			],
			"translation":[
				1.8254464864730835,
				-0.9551213979721069,
				-0.014648577198386192
			]
		}
	],
	"materials":[
		{
			"doubleSided":true,
			"name":"apple",
			"normalTexture":{
				"index":0
			},
			"occlusionTexture":{
				"index":1
			},
			"pbrMetallicRoughness":{
				"baseColorFactor":[
					1,
					0.006048833951354027,
					0.006048833951354027,
					1
				],
				"metallicFactor":0,
				"metallicRoughnessTexture":{
					"index":1
				}
			}
		},
		{
			"doubleSided":true,
			"name":"metal",
			"pbrMetallicRoughness":{
				"baseColorFactor":[
					0.800000011920929,
					0.800000011920929,
					0.800000011920929,
					1
				],
				"metallicFactor":0,
				"roughnessFactor":0.7815759181976318
			}
		},
		{
			"doubleSided":true,
			"name":"plastik",
			"pbrMetallicRoughness":{
				"baseColorFactor":[
					0.021855300292372704,
					0.02167009934782982,
					0.025038499385118484,
					1
				],
				"metallicFactor":0,
				"roughnessFactor":0.99581378698349
			}
		},
		{
			"doubleSided":true,
			"name":"metal_2",
			"pbrMetallicRoughness":{
				"baseColorFactor":[
					0.6556299924850464,
					0.6263139843940735,
					0.11494199931621552,
					1
				],
				"metallicFactor":0,
				"roughnessFactor":0.8258830904960632
			}
		},
		{
			"alphaMode":"BLEND",
			"doubleSided":true,
			"name":"glass",
			"pbrMetallicRoughness":{
				"baseColorFactor":[
					0.800000011920929,
					0.800000011920929,
					0.800000011920929,
					0.13257183134555817
				],
				"metallicFactor":0
			}
		},
		{
			"doubleSided":true,
			"name":"hrom",
			"pbrMetallicRoughness":{
				"metallicFactor":0,
				"roughnessFactor":0.7061230540275574
			}
		},
		{
			"doubleSided":true,
			"name":"hrom_2__0",
			"pbrMetallicRoughness":{
				"metallicFactor":0,
				"roughnessFactor":0.6000000238418579
			}
		}
	],
	"meshes":[
		{
			"name":"td3nedtla_LOD0_TIER2_000_MatID_1_0",
			"primitives":[
				{
					"attributes":{
						"POSITION":0,
						"NORMAL":1,
						"TEXCOORD_0":2
					},
					"indices":3,
					"material":0
				}
			]
		},
		{
			"name":"dushka 1 kr 1_metal_0",
			"primitives":[
				{
					"attributes":{
						"POSITION":4,
						"NORMAL":5,
						"TEXCOORD_0":6
					},
					"indices":7,
					"material":1
				}
			]
		},
		{
			"name":"dushka 1 kr 2_metal_0",
			"primitives":[
				{
					"attributes":{
						"POSITION":8,
						"NORMAL":9,
						"TEXCOORD_0":10
					},
					"indices":7,
					"material":1
				}
			]
		},
		{
			"name":"dushka 1 kr 3_metal_0",
			"primitives":[
				{
					"attributes":{
						"POSITION":11,
						"NORMAL":12,
						"TEXCOORD_0":13
					},
					"indices":14,
					"material":1
				}
			]
		},
		{
			"name":"dushka 1 kr 4_metal_0",
			"primitives":[
				{
					"attributes":{
						"POSITION":15,
						"NORMAL":16,
						"TEXCOORD_0":17
					},
					"indices":18,
					"material":1
				}
			]
		},
		{
			"name":"dushka 1_plastik_0",
			"primitives":[
				{
					"attributes":{
						"POSITION":19,
						"NORMAL":20,
						"TEXCOORD_0":21
					},
					"indices":22,
					"material":2
				}
			]
		},
		{
			"name":"dushka 1vint_metal 2_0",
			"primitives":[
				{
					"attributes":{
						"POSITION":23,
						"NORMAL":24,
						"TEXCOORD_0":25
					},
					"indices":26,
					"material":3
				}
			]
		},
		{
			"name":"dushka 2 kr 1_metal_0",
			"primitives":[
				{
					"attributes":{
						"POSITION":27,
						"NORMAL":28,
						"TEXCOORD_0":29
					},
					"indices":7,
					"material":1
				}
			]
		},
		{
			"name":"dushka 2 kr 2_metal_0",
			"primitives":[
				{
					"attributes":{
						"POSITION":30,
						"NORMAL":31,
						"TEXCOORD_0":32
					},
					"indices":7,
					"material":1
				}
			]
		},
		{
			"name":"dushka 2 kr 3_metal_0",
			"primitives":[
				{
					"attributes":{
						"POSITION":33,
						"NORMAL":34,
						"TEXCOORD_0":35
					},
					"indices":14,
					"material":1
				}
			]
		},
		{
			"name":"dushka 2 kr 4_metal_0",
			"primitives":[
				{
					"attributes":{
						"POSITION":36,
						"NORMAL":37,
						"TEXCOORD_0":38
					},
					"indices":39,
					"material":1
				}
			]
		},
		{
			"name":"dushka 2 vint_metal 2_0",
			"primitives":[
				{
					"attributes":{
						"POSITION":40,
						"NORMAL":41,
						"TEXCOORD_0":42
					},
					"indices":26,
					"material":3
				}
			]
		},
		{
			"name":"dushka 2_plastik_0",
			"primitives":[
				{
					"attributes":{
						"POSITION":43,
						"NORMAL":44,
						"TEXCOORD_0":45
					},
					"indices":22,
					"material":2
				}
			]
		},
		{
			"name":"glass_glass_0",
			"primitives":[
				{
					"attributes":{
						"POSITION":46,
						"NORMAL":47,
						"TEXCOORD_0":48
					},
					"indices":49,
					"material":4
				}
			]
		},
		{
			"name":"hrom 1_hrom_0",
			"primitives":[
				{
					"attributes":{
						"POSITION":50,
						"NORMAL":51,
						"TEXCOORD_0":52
					},
					"indices":53,
					"material":5
				}
			]
		},
		{
			"name":"hrom 2__0",
			"primitives":[
				{
					"attributes":{
						"POSITION":54,
						"NORMAL":55,
						"TEXCOORD_0":56
					},
					"indices":57,
					"material":6
				}
			]
		},
		{
			"name":"main_plastik_0",
			"primitives":[
				{
					"attributes":{
						"POSITION":58,
						"NORMAL":59,
						"TEXCOORD_0":60
					},
					"indices":61,
					"material":2
				}
			]
		},
		{
			"name":"Text__0",
			"primitives":[
				{
					"attributes":{
						"POSITION":62,
						"NORMAL":63,
						"TEXCOORD_0":64
					},
					"indices":65,
					"material":6
				}
			]
		}
	],
	"textures":[
		{
			"sampler":0,
			"source":0
		},
		{
			"sampler":0,
			"source":1
		}
	],
	"images":[
		{
			"mimeType":"image/jpeg",
			"name":"apple_normal",
			"uri":"textures/apple_normal.jpg"
		},
		{
			"mimeType":"image/png",
			"name":"apple_orm",
			"uri":"textures/apple_orm.png"
		}
	],
	"accessors":[
		{
			"bufferView":0,
			"componentType":5126,
			"count":1097,
			"max":[
				1.5813628435134888,
				1.5005000829696655,
				1.5712388753890991
			],
			"min":[
				-1.5797224044799805,
				-1.5039763450622559,
				-1.5738601684570312
			],
			"type":"VEC3"
		},
		{
			"bufferView":1,
			"componentType":5126,
			"count":1097,
			"type":"VEC3"
		},
		{
			"bufferView":2,
			"componentType":5126,
			"count":1097,
			"type":"VEC2"
		},
		{
			"bufferView":3,
			"componentType":5123,
			"count":5376,
			"type":"SCALAR"
		},
		{
			"bufferView":4,
			"componentType":5126,
			"count":271,
			"max":[
				-0.8627705574035645,
				-6.215585708618164,
				5.5444231033325195
			],
			"min":[
				-0.9428993463516235,
				-6.321775436401367,
				5.288761138916016
			],
			"type":"VEC3"
		},
		{
			"bufferView":5,
			"componentType":5126,
			"count":271,
			"type":"VEC3"
		},
		{
			"bufferView":6,
			"componentType":5126,
			"count":271,
			"type":"VEC2"
		},
		{
			"bufferView":7,
			"componentType":5123,
			"count":1284,
			"type":"SCALAR"
		},
		{
			"bufferView":8,
			"componentType":5126,
			"count":271,
			"max":[
				-0.7099454402923584,
				-6.217738628387451,
				5.5444231033325195
			],
			"min":[
				-0.7788310050964355,
				-6.323928356170654,
				5.288761138916016
			],
			"type":"VEC3"
		},
		{
			"bufferView":9,
			"componentType":5126,
			"count":271,
			"type":"VEC3"
		},
		{
			"bufferView":10,
			"componentType":5126,
			"count":271,
			"type":"VEC2"
		},
		{
			"bufferView":11,
			"componentType":5126,
			"count":263,
			"max":[
				-0.7994163632392883,
				-6.249478816986084,
				5.438129425048828
			],
			"min":[
				-0.887301504611969,
				-6.294612407684326,
				5.395902633666992
			],
			"type":"VEC3"
		},
		{
			"bufferView":12,
			"componentType":5126,
			"count":263,
			"type":"VEC3"
		},
		{
			"bufferView":13,
			"componentType":5126,
			"count":263,
			"type":"VEC2"
		},
		{
			"bufferView":14,
			"componentType":5123,
			"count":1284,
			"type":"SCALAR"
		},
		{
			"bufferView":15,
			"componentType":5126,
			"count":604,
			"max":[
				-0.759106457233429,
				-6.249478816986084,
				5.452627182006836
			],
			"min":[
				-0.8368869423866272,
				-6.294612407684326,
				5.38105583190918
			],
			"type":"VEC3"
		},
		{
			"bufferView":16,
			"componentType":5126,
			"count":604,
			"type":"VEC3"
		},
		{
			"bufferView":17,
			"componentType":5126,
			"count":604,
			"type":"VEC2"
		},
		{
			"bufferView":18,
			"componentType":5123,
			"count":2787,
			"type":"SCALAR"
		},
		{
			"bufferView":19,
			"componentType":5126,
			"count":4130,
			"max":[
				-0.8801746368408203,
				-6.216014385223389,
				5.708169460296631
			],
			"min":[
				-12.807596206665039,
				-6.323460578918457,
				3.609743595123291
			],
			"type":"VEC3"
		},
		{
			"bufferView":20,
			"componentType":5126,
			"count":4130,
			"type":"VEC3"
		},
		{
			"bufferView":21,
			"componentType":5126,
			"count":4130,
			"type":"VEC2"
		},
		{
			"bufferView":22,
			"componentType":5123,
			"count":24768,
			"type":"SCALAR"
		},
		{
			"bufferView":23,
			"componentType":5126,
			"count":178,
			"max":[
				-0.8072695136070251,
				-6.263307571411133,
				5.455097198486328
			],
			"min":[
				-0.8260374665260315,
				-6.282075881958008,
				5.377429962158203
			],
			"type":"VEC3"
		},
		{
			"bufferView":24,
			"componentType":5126,
			"count":178,
			"type":"VEC3"
		},
		{
			"bufferView":25,
			"componentType":5126,
			"count":178,
			"type":"VEC2"
		},
		{
			"bufferView":26,
			"componentType":5123,
			"count":564,
			"type":"SCALAR"
		},
		{
			"bufferView":27,
			"componentType":5126,
			"count":271,
			"max":[
				-0.9411024451255798,
				6.06255578994751,
				5.544422626495361
			],
			"min":[
				-1.0212312936782837,
				5.956366062164307,
				5.288760662078857
			],
			"type":"VEC3"
		},
		{
			"bufferView":28,
			"componentType":5126,
			"count":271,
			"type":"VEC3"
		},
		{
			"bufferView":29,
			"componentType":5126,
			"count":271,
			"type":"VEC2"
		},
		{
			"bufferView":30,
			"componentType":5126,
			"count":271,
			"max":[
				-0.7882773280143738,
				6.060402870178223,
				5.544422626495361
			],
			"min":[
				-0.8571628928184509,
				5.9542131423950195,
				5.288760662078857
			],
			"type":"VEC3"
		},
		{
			"bufferView":31,
			"componentType":5126,
			"count":271,
			"type":"VEC3"
		},
		{
			"bufferView":32,
			"componentType":5126,
			"count":271,
			"type":"VEC2"
		},
		{
			"bufferView":33,
			"componentType":5126,
			"count":263,
			"max":[
				-0.8777482509613037,
				6.02866268157959,
				5.43812894821167
			],
			"min":[
				-0.9656333923339844,
				5.983529090881348,
				5.395902156829834
			],
			"type":"VEC3"
		},
		{
			"bufferView":34,
			"componentType":5126,
			"count":263,
			"type":"VEC3"
		},
		{
			"bufferView":35,
			"componentType":5126,
			"count":263,
			"type":"VEC2"
		},
		{
			"bufferView":36,
			"componentType":5126,
			"count":604,
			"max":[
				-0.8374383449554443,
				6.02866268157959,
				5.452626705169678
			],
			"min":[
				-0.9152188301086426,
				5.983529090881348,
				5.3810553550720215
			],
			"type":"VEC3"
		},
		{
			"bufferView":37,
			"componentType":5126,
			"count":604,
			"type":"VEC3"
		},
		{
			"bufferView":38,
			"componentType":5126,
			"count":604,
			"type":"VEC2"
		},
		{
			"bufferView":39,
			"componentType":5123,
			"count":2790,
			"type":"SCALAR"
		},
		{
			"bufferView":40,
			"componentType":5126,
			"count":178,
			"max":[
				-0.8856014609336853,
				6.014833927154541,
				5.45509672164917
			],
			"min":[
				-0.9043694138526917,
				5.996065616607666,
				5.377429485321045
			],
			"type":"VEC3"
		},
		{
			"bufferView":41,
			"componentType":5126,
			"count":178,
			"type":"VEC3"
		},
		{
			"bufferView":42,
			"componentType":5126,
			"count":178,
			"type":"VEC2"
		},
		{
			"bufferView":43,
			"componentType":5126,
			"count":4130,
			"max":[
				-0.9585070610046387,
				6.062127590179443,
				5.708169460296631
			],
			"min":[
				-12.8859281539917,
				5.954681396484375,
				3.609743595123291
			],
			"type":"VEC3"
		},
		{
			"bufferView":44,
			"componentType":5126,
			"count":4130,
			"type":"VEC3"
		},
		{
			"bufferView":45,
			"componentType":5126,
			"count":4130,
			"type":"VEC2"
		},
		{
			"bufferView":46,
			"componentType":5126,
			"count":1988,
			"max":[
				-0.25667691230773926,
				5.495554447174072,
				5.7859206199646
			],
			"min":[
				-0.721297025680542,
				-5.760927677154541,
				2.7427165508270264
			],
			"type":"VEC3"
		},
		{
			"bufferView":47,
			"componentType":5126,
			"count":1988,
			"type":"VEC3"
		},
		{
			"bufferView":48,
			"componentType":5126,
			"count":1988,
			"type":"VEC2"
		},
		{
			"bufferView":49,
			"componentType":5123,
			"count":11052,
			"type":"SCALAR"
		},
		{
			"bufferView":50,
			"componentType":5126,
			"count":1038,
			"max":[
				-0.5148169994354248,
				-5.861802101135254,
				5.450202941894531
			],
			"min":[
				-0.5992984771728516,
				-6.217254638671875,
				5.357339859008789
			],
			"type":"VEC3"
		},
		{
			"bufferView":51,
			"componentType":5126,
			"count":1038,
			"type":"VEC3"
		},
		{
			"bufferView":52,
			"componentType":5126,
			"count":1038,
			"type":"VEC2"
		},
		{
			"bufferView":53,
			"componentType":5123,
			"count":1284,
			"type":"SCALAR"
		},
		{
			"bufferView":54,
			"componentType":5126,
			"count":1032,
			"max":[
				-0.5883415937423706,
				5.967228412628174,
				5.450202941894531
			],
			"min":[
				-0.683006763458252,
				5.610949993133545,
				5.357339859008789
			],
			"type":"VEC3"
		},
		{
			"bufferView":55,
			"componentType":5126,
			"count":1032,
			"type":"VEC3"
		},
		{
			"bufferView":56,
			"componentType":5126,
			"count":1032,
			"type":"VEC2"
		},
		{
			"bufferView":57,
			"componentType":5123,
			"count":1284,
			"type":"SCALAR"
		},
		{
			"bufferView":58,
			"componentType":5126,
			"count":3976,
			"max":[
				-0.1486983299255371,
				6.092944145202637,
				6.001774787902832
			],
			"min":[
				-0.8290115594863892,
				-6.350368022918701,
				2.5435421466827393
			],
			"type":"VEC3"
		},
		{
			"bufferView":59,
			"componentType":5126,
			"count":3976,
			"type":"VEC3"
		},
		{
			"bufferView":60,
			"componentType":5126,
			"count":3976,
			"type":"VEC2"
		},
		{
			"bufferView":61,
			"componentType":5123,
			"count":23868,
			"type":"SCALAR"
		},
		{
			"bufferView":62,
			"componentType":5126,
			"count":3453,
			"max":[
				-1.093630075454712,
				-6.31961727142334,
				5.507707595825195
			],
			"min":[
				-2.4526126384735107,
				-6.325977325439453,
				5.301013946533203
			],
			"type":"VEC3"
		},
		{
			"bufferView":63,
			"componentType":5126,
			"count":3453,
			"type":"VEC3"
		},
		{
			"bufferView":64,
			"componentType":5126,
			"count":3453,
			"type":"VEC2"
		},
		{
			"bufferView":65,
			"componentType":5123,
			"count":8292,
			"type":"SCALAR"
		}
	],
	"bufferViews":[
		{
			"buffer":0,
			"byteLength":13164,
			"byteOffset":0,
			"target":34962
		},
		{
			"buffer":0,
			"byteLength":13164,
			"byteOffset":13164,
			"target":34962
		},
		{
			"buffer":0,
			"byteLength":8776,
			"byteOffset":26328,
			"target":34962
		},
		{
			"buffer":0,
			"byteLength":10752,
			"byteOffset":35104,
			"target":34963
		},
		{
			"buffer":0,
			"byteLength":3252,
			"byteOffset":45856,
			"target":34962
		},
		{
			"buffer":0,
			"byteLength":3252,
			"byteOffset":49108,
			"target":34962
		},
		{
			"buffer":0,
			"byteLength":2168,
			"byteOffset":52360,
			"target":34962
		},
		{
			"buffer":0,
			"byteLength":2568,
			"byteOffset":54528,
			"target":34963
		},
		{
			"buffer":0,
			"byteLength":3252,
			"byteOffset":57096,
			"target":34962
		},
		{
			"buffer":0,
			"byteLength":3252,
			"byteOffset":60348,
			"target":34962
		},
		{
			"buffer":0,
			"byteLength":2168,
			"byteOffset":63600,
			"target":34962
		},
		{
			"buffer":0,
			"byteLength":3156,
			"byteOffset":65768,
			"target":34962
		},
		{
			"buffer":0,
			"byteLength":3156,
			"byteOffset":68924,
			"target":34962
		},
		{
			"buffer":0,
			"byteLength":2104,
			"byteOffset":72080,
			"target":34962
		},
		{
			"buffer":0,
			"byteLength":2568,
			"byteOffset":74184,
			"target":34963
		},
		{
			"buffer":0,
			"byteLength":7248,
			"byteOffset":76752,
			"target":34962
		},
		{
			"buffer":0,
			"byteLength":7248,
			"byteOffset":84000,
			"target":34962
		},
		{
			"buffer":0,
			"byteLength":4832,
			"byteOffset":91248,
			"target":34962
		},
		{
			"buffer":0,
			"byteLength":5574,
			"byteOffset":96080,
			"target":34963
		},
		{
			"buffer":0,
			"byteLength":49560,
			"byteOffset":101656,
			"target":34962
		},
		{
			"buffer":0,
			"byteLength":49560,
			"byteOffset":151216,
			"target":34962
		},
		{
			"buffer":0,
			"byteLength":33040,
			"byteOffset":200776,
			"target":34962
		},
		{
			"buffer":0,
			"byteLength":49536,
			"byteOffset":233816,
			"target":34963
		},
		{
			"buffer":0,
			"byteLength":2136,
			"byteOffset":283352,
			"target":34962
		},
		{
			"buffer":0,
			"byteLength":2136,
			"byteOffset":285488,
			"target":34962
		},
		{
			"buffer":0,
			"byteLength":1424,
			"byteOffset":287624,
			"target":34962
		},
		{
			"buffer":0,
			"byteLength":1128,
			"byteOffset":289048,
			"target":34963
		},
		{
			"buffer":0,
			"byteLength":3252,
			"byteOffset":290176,
			"target":34962
		},
		{
			"buffer":0,
			"byteLength":3252,
			"byteOffset":293428,
			"target":34962
		},
		{
			"buffer":0,
			"byteLength":2168,
			"byteOffset":296680,
			"target":34962
		},
		{
			"buffer":0,
			"byteLength":3252,
			"byteOffset":298848,
			"target":34962
		},
		{
			"buffer":0,
			"byteLength":3252,
			"byteOffset":302100,
			"target":34962
		},
		{
			"buffer":0,
			"byteLength":2168,
			"byteOffset":305352,
			"target":34962
		},
		{
			"buffer":0,
			"byteLength":3156,
			"byteOffset":307520,
			"target":34962
		},
		{
			"buffer":0,
			"byteLength":3156,
			"byteOffset":310676,
			"target":34962
		},
		{
			"buffer":0,
			"byteLength":2104,
			"byteOffset":313832,
			"target":34962
		},
		{
			"buffer":0,
			"byteLength":7248,
			"byteOffset":315936,
			"target":34962
		},
		{
			"buffer":0,
			"byteLength":7248,
			"byteOffset":323184,
			"target":34962
		},
		{
			"buffer":0,
			"byteLength":4832,
			"byteOffset":330432,
			"target":34962
		},
		{
			"buffer":0,
			"byteLength":5580,
			"byteOffset":335264,
			"target":34963
		},
		{
			"buffer":0,
			"byteLength":2136,
			"byteOffset":340844,
			"target":34962
		},
		{
			"buffer":0,
			"byteLength":2136,
			"byteOffset":342980,
			"target":34962
		},
		{
			"buffer":0,
			"byteLength":1424,
			"byteOffset":345116,
			"target":34962
		},
		{
			"buffer":0,
			"byteLength":49560,
			"byteOffset":346540,
			"target":34962
		},
		{
			"buffer":0,
			"byteLength":49560,
			"byteOffset":396100,
			"target":34962
		},
		{
			"buffer":0,
			"byteLength":33040,
			"byteOffset":445660,
			"target":34962
		},
		{
			"buffer":0,
			"byteLength":23856,
			"byteOffset":478700,
			"target":34962
		},
		{
			"buffer":0,
			"byteLength":23856,
			"byteOffset":502556,
			"target":34962
		},
		{
			"buffer":0,
			"byteLength":15904,
			"byteOffset":526412,
			"target":34962
		},
		{
			"buffer":0,
			"byteLength":22104,
			"byteOffset":542316,
			"target":34963
		},
		{
			"buffer":0,
			"byteLength":12456,
			"byteOffset":564420,
			"target":34962
		},
		{
			"buffer":0,
			"byteLength":12456,
			"byteOffset":576876,
			"target":34962
		},
		{
			"buffer":0,
			"byteLength":8304,
			"byteOffset":589332,
			"target":34962
		},
		{
			"buffer":0,
			"byteLength":2568,
			"byteOffset":597636,
			"target":34963
		},
		{
			"buffer":0,
			"byteLength":12384,
			"byteOffset":600204,
			"target":34962
		},
		{
			"buffer":0,
			"byteLength":12384,
			"byteOffset":612588,
			"target":34962
		},
		{
			"buffer":0,
			"byteLength":8256,
			"byteOffset":624972,
			"target":34962
		},
		{
			"buffer":0,
			"byteLength":2568,
			"byteOffset":633228,
			"target":34963
		},
		{
			"buffer":0,
			"byteLength":47712,
			"byteOffset":635796,
			"target":34962
		},
		{
			"buffer":0,
			"byteLength":47712,
			"byteOffset":683508,
			"target":34962
		},
		{
			"buffer":0,
			"byteLength":31808,
			"byteOffset":731220,
			"target":34962
		},
		{
			"buffer":0,
			"byteLength":47736,
			"byteOffset":763028,
			"target":34963
		},
		{
			"buffer":0,
			"byteLength":41436,
			"byteOffset":810764,
			"target":34962
		},
		{
			"buffer":0,
			"byteLength":41436,
			"byteOffset":852200,
			"target":34962
		},
		{
			"buffer":0,
			"byteLength":27624,
			"byteOffset":893636,
			"target":34962
		},
		{
			"buffer":0,
			"byteLength":16584,
			"byteOffset":921260,
			"target":34963
		}
	],
	"samplers":[
		{
			"magFilter":9729,
			"minFilter":9987
		}
	],
	"buffers":[
		{
			"byteLength":937844,
			"uri":"apple-with-glasses.bin"
		}
	]
}
